<?xml version="1.0" encoding="UTF-8"?>
<svg width="304" height="184" version="1.1" xml:space="preserve" xmlns="http://www.w3.org/2000/svg">
  <path d="m3.1e-5 24.342v-24.342c1.5396 2.0485 1.5143 4.883 2.5953 6.9302 0.65642 3.7463 4.2846 5.8276 6.6055 8.5255 2.744 2.7549 5.4856 5.5123 8.2617 8.235 1.1139 2.8551 2.2306 6.1466 0.08738 8.9037-0.81916 1.3771-1.038 2.7388-0.88108 4.4328 0.25627 0.94482-0.52469 2.9382 0.40766 3.1996 4.2124-0.0457 8.4249-0.09138 12.637-0.13708 1.3486-2.6425 3.2231-5.4039 1.8923-8.3904-2.8868-1.6808-3.373-5.2925-2.2804-8.2197 3.5983-3.5601 7.1141-7.3243 10.85-10.725 4.2781-0.07306 8.6098-0.01062 12.909-0.0314 2.8343 3.0649 6.165 5.7955 8.7547 9.0089 1.2751 2.7713 2.2869 6.0251 0.13674 8.724-0.5864 2.5279-3.7994 3.9017-5.0912 6.1202-1.94e-4 1.9204-3.87e-4 3.8408-5.81e-4 5.7612h10.805c1.921-2.6861 1.1834-6.3015 3.3803-8.8609-0.47252-3.8084 1.6053-6.7763 1.1557-10.472-0.8679-3.0666-1.9233-7.1599-0.31248-10.371 2.1755-2.3898 5.4618-4.4438 5.8738-7.8783 1.4972-0.71139 1.8112-4.8163 2.6939-4.1725-0.11086 16.02-0.016853 32.069-0.048003 48.101h-80.434c3.4733e-4 -8.114 6.9067e-4 -16.228 0.001034-24.342z"/>
</svg>
