<?xml version="1.0" encoding="UTF-8" standalone="no"?>
<svg
  width="304"
  height="184"
  version="1.1"
  xml:space="preserve"
  id="svg1"
  xmlns="http://www.w3.org/2000/svg"
  xmlns:svg="http://www.w3.org/2000/svg">
  <path d="m 0.0010425,91.692185 c 0,-61.283218 0.3360709,-92.09954243 0.999992,-91.68811943 0.5499912,0.340838 0.999992,1.47163103 0.999992,2.51287703 0,1.041243 1.1250022,4.014724 2.499995,6.607731 1.5312477,2.8876734 2.4999947,6.3575764 2.4999947,8.9546064 0,2.545682 0.599435,4.73886 1.500003,5.488299 0.825002,0.686538 1.5000028,2.053796 1.5000028,3.038347 0,2.733587 4.681999,11.181246 8.053194,14.53023 1.653637,1.642755 4.230657,4.295009 5.726728,5.893889 1.496042,1.59888 3.310789,3.40374 4.032733,4.01081 0.721943,0.60706 2.521947,2.41193 3.999997,4.01081 1.478051,1.59888 3.278055,3.40375 3.999998,4.01081 0.721944,0.60706 2.521947,2.41193 3.999998,4.01081 1.478051,1.59888 3.278055,3.40375 3.999998,4.01081 0.721973,0.60706 2.521947,2.41193 3.999998,4.01081 1.478051,1.59889 3.278054,3.40375 3.999998,4.01081 0.721973,0.60707 2.521977,2.41193 3.999998,4.01081 1.478051,1.59888 3.270995,3.40375 3.98433,4.01081 3.740238,3.18309 6.203031,6.28337 6.203031,7.8087 0,0.94155 1.125002,3.83346 2.500024,6.42646 3.433744,6.475475 3.433744,14.388735 0,20.864185 -1.375022,2.59301 -2.500024,5.53786 -2.500024,6.54414 0,1.00628 -0.675002,2.39129 -1.500003,3.07782 -1.172719,0.97594 -1.499973,3.74106 -1.499973,12.67408 v 11.42584 l 24.652798,-0.26819 24.652825,-0.2682 2.78072,-5.0135 c 1.5294,-2.75745 2.81063,-5.97352 2.84718,-7.14684 0.0366,-1.17332 0.74145,-2.695 1.56645,-3.38156 1.05748,-0.87997 1.49968,-3.2088 1.4989,-7.89371 -0.001,-6.05574 -0.26866,-6.91242 -3.01454,-9.65359 -1.65739,-1.65446 -4.11003,-4.1079 -5.45035,-5.45212 -4.70636,-4.72007 -4.67997,-21.568185 0.0411,-26.207525 1.36129,-1.33773 3.70127,-3.74041 5.2,-5.3393 1.49872,-1.59888 3.31564,-3.40374 4.03758,-4.01081 0.72198,-0.60706 2.52198,-2.41192 4,-4.01081 1.47805,-1.59888 3.27806,-3.40374 4,-4.01081 0.72197,-0.60706 2.52198,-2.41192 4.00003,-4.01081 1.47802,-1.59888 3.27802,-3.40375 4,-4.01081 0.72194,-0.60706 2.52194,-2.41193 3.99999,-4.01081 1.47805,-1.59888 3.28107,-3.40375 4.00667,-4.01081 0.72564,-0.60706 2.26931,-2.11899 3.43035,-3.35983 2.07847,-2.22133 2.49058,-2.25608 26.75033,-2.25608 24.25975,0 24.67186,0.0348 26.75033,2.25608 1.16107,1.24084 2.70471,2.75277 3.43035,3.35983 0.72564,0.60706 2.52865,2.41193 4.0067,4.01081 1.47802,1.59888 3.27802,3.40375 4,4.01081 0.72194,0.60706 2.52194,2.41193 4,4.01081 1.47805,1.59889 3.27802,3.40375 3.99999,4.01081 0.72195,0.60707 2.53887,2.41193 4.03759,4.01081 1.49872,1.59889 3.86123,4.02562 5.25001,5.39273 1.38875,1.36712 2.52505,3.26091 2.52505,4.20843 0,0.94752 1.125,3.84431 2.49999,6.43732 3.43374,6.47547 3.43374,14.388735 0,20.864175 -1.37499,2.59301 -2.49999,5.48494 -2.49999,6.42647 0,1.52532 -2.46283,4.62563 -6.20306,7.8087 -0.71331,0.60706 -2.521,2.41193 -4.01704,4.01081 -1.49607,1.59888 -4.08304,4.26073 -5.74889,5.91517 -3.01427,2.99372 -3.02878,3.06214 -3.02991,14.28854 l -10e-4,11.2804 h 20.41845 20.41841 l 2.1823,-3.5406 c 1.33485,-2.16565 2.54301,-6.45382 3.11117,-11.04251 0.72802,-5.87983 1.61191,-8.47361 4.08784,-11.99572 2.95476,-4.20331 3.20469,-5.24315 3.86658,-16.08715 0.51658,-8.46372 1.14055,-12.07307 2.31143,-13.37036 2.3351,-2.58724 2.31955,-21.724895 -0.0208,-24.316795 -1.91021,-2.11646 -3.03245,-16.50184 -1.95924,-25.11466 0.6442,-5.1701 1.90166,-7.29151 6.78584,-11.448123 0.71334,-0.607062 2.521,-2.411927 4.01707,-4.010811 1.49604,-1.598882 4.07305,-4.251132 5.72668,-5.893887 3.19576,-3.174691 8.0532,-11.750915 8.0532,-14.218556 0,-0.813132 1.06093,-2.914767 2.35762,-4.670303 3.06157,-4.144924 5.64237,-9.5466864 5.64237,-11.8097304 0,-0.985695 0.45,-2.07104103 1.00002,-2.41187903 0.6639,-0.411423 1,30.40490143 1,91.68811943 V 184 h -152 H 0 Z" />
</svg>
